<?xml version="1.0" encoding="utf-8"?>
<!-- Generator: Adobe Illustrator 21.1.0, SVG Export Plug-In . SVG Version: 6.00 Build 0)  -->
<svg version="1.1" id="Layer_1" xmlns="http://www.w3.org/2000/svg" xmlns:xlink="http://www.w3.org/1999/xlink" x="0px" y="0px"
	 width="120px" height="34px" viewBox="0 0 120 34" style="enable-background:new 0 0 120 34;" xml:space="preserve">
<style type="text/css">
	.st0{fill-rule:evenodd;clip-rule:evenodd;fill:#B6A57C;}
</style>
<path class="st0" d="M38.4,32.9h-0.9v-5.3h0.9V32.9z M37.9,25.4c0.2,0,0.3,0.1,0.5,0.2c0.1,0.1,0.2,0.3,0.2,0.5
	c0,0.2-0.1,0.3-0.2,0.5c-0.1,0.1-0.3,0.2-0.5,0.2c-0.2,0-0.3-0.1-0.5-0.2c-0.1-0.1-0.2-0.3-0.2-0.5c0-0.2,0.1-0.4,0.2-0.5
	C37.5,25.5,37.7,25.4,37.9,25.4 M47.8,32.9h-0.9v-2.8c0-0.5-0.1-0.9-0.3-1.2c-0.3-0.3-0.6-0.5-1.1-0.5c-0.5,0-0.9,0.2-1.1,0.6
	c-0.2,0.2-0.2,0.6-0.2,1.2v2.7h-0.9v-3c0-0.7,0.2-1.3,0.6-1.8c0.4-0.5,1-0.7,1.7-0.7c1,0,1.7,0.4,2.1,1.3c0.1,0.3,0.2,0.7,0.2,1.1
	V32.9z M56,27.6h1l-1.7,4.7c-0.1,0.3-0.2,0.4-0.3,0.5c-0.1,0.1-0.4,0.2-0.6,0.2c-0.3,0-0.5-0.1-0.7-0.3c-0.1-0.1-0.2-0.3-0.2-0.5
	l-1.7-4.6h1l1.4,4.1c0,0.1,0.1,0.2,0.2,0.2c0.1,0,0.1-0.1,0.2-0.2L56,27.6z M65.7,30.5l0.7,0.4c-0.2,0.6-0.4,1.1-0.8,1.4
	c-0.5,0.5-1.2,0.8-2,0.8c-0.8,0-1.5-0.3-2.1-0.9c-0.5-0.5-0.8-1.2-0.8-1.9c0-0.8,0.3-1.5,0.9-2c0.5-0.5,1.1-0.7,1.9-0.7
	c0.8,0,1.5,0.3,2,0.9c0.2,0.2,0.3,0.4,0.5,0.7l-3.4,2.2l-0.4-0.7l2.6-1.7c-0.3-0.4-0.7-0.5-1.3-0.5c-0.5,0-0.9,0.2-1.3,0.5
	c-0.3,0.4-0.5,0.8-0.5,1.3c0,0.5,0.2,1,0.5,1.4c0.4,0.4,0.8,0.6,1.4,0.6c0.4,0,0.7-0.1,1.1-0.3C65.2,31.7,65.6,31.2,65.7,30.5
	 M70.6,32.9v-0.8h2.1c0.4,0,0.6,0,0.8,0c0.3-0.1,0.4-0.2,0.4-0.6c0-0.3-0.2-0.4-0.5-0.6l-2-0.7c-0.7-0.2-1-0.7-1-1.3
	c0-0.9,0.6-1.4,2-1.4h2.1v0.8h-2.3c-0.6,0-0.9,0.2-0.9,0.6c0,0.3,0.2,0.4,0.5,0.5l1.9,0.7c0.4,0.1,0.7,0.3,0.8,0.5
	c0.2,0.2,0.3,0.5,0.3,0.9c0,0.9-0.6,1.4-1.8,1.4H70.6z M80.3,28.5V31c0,0.3,0,0.5,0.1,0.7c0.1,0.3,0.5,0.5,1.2,0.5H82v0.8h-0.5
	c-0.4,0-0.8,0-1-0.1c-0.4-0.1-0.7-0.3-0.9-0.7c-0.1-0.3-0.2-0.7-0.2-1.2v-4.9h1v1.6H82v0.8H80.3z M93.7,32.9h-1v-3.2
	c0-0.4-0.1-0.7-0.3-0.9c-0.2-0.2-0.5-0.4-0.9-0.4c-0.4,0-0.7,0.2-0.9,0.5c-0.1,0.2-0.2,0.3-0.2,0.5c0,0.1,0,0.3,0,0.5v3h-0.9v-3.1
	c0-0.9-0.4-1.4-1.2-1.4c-0.4,0-0.7,0.2-1,0.5c-0.1,0.1-0.2,0.3-0.2,0.5c0,0.1,0,0.2,0,0.5v3h-0.9v-3.2c0-0.4,0.1-0.8,0.1-1
	c0.3-0.8,0.9-1.2,1.9-1.2c0.8,0,1.3,0.3,1.7,1c0.4-0.7,1-1,1.7-1c0.4,0,0.8,0.1,1.1,0.3c0.6,0.3,1,1,1,1.8V32.9z M103.1,30.5
	l0.7,0.4c-0.2,0.6-0.4,1.1-0.8,1.4c-0.5,0.5-1.2,0.8-2,0.8c-0.8,0-1.5-0.3-2.1-0.9c-0.5-0.5-0.8-1.2-0.8-1.9c0-0.8,0.3-1.5,0.9-2
	c0.5-0.5,1.1-0.7,1.9-0.7c0.8,0,1.5,0.3,2,0.9c0.2,0.2,0.3,0.4,0.5,0.7l-3.4,2.2l-0.4-0.7l2.6-1.7c-0.3-0.4-0.7-0.5-1.3-0.5
	c-0.5,0-1,0.2-1.3,0.5c-0.3,0.4-0.5,0.8-0.5,1.3c0,0.5,0.2,1,0.5,1.4c0.4,0.4,0.8,0.6,1.4,0.6c0.4,0,0.7-0.1,1.1-0.3
	C102.5,31.7,102.9,31.2,103.1,30.5 M112.6,32.9h-0.9v-2.8c0-0.5-0.1-0.9-0.3-1.2c-0.3-0.3-0.6-0.5-1.1-0.5c-0.5,0-0.9,0.2-1.1,0.6
	c-0.2,0.2-0.2,0.6-0.2,1.1v2.7H108v-3c0-0.7,0.2-1.3,0.6-1.8c0.4-0.5,1-0.7,1.7-0.7c1,0,1.7,0.4,2.1,1.3c0.1,0.3,0.2,0.7,0.2,1.1
	V32.9z M118.3,28.5V31c0,0.3,0,0.5,0.1,0.7c0.1,0.3,0.5,0.5,1.2,0.5h0.4v0.8h-0.5c-0.4,0-0.8,0-1-0.1c-0.4-0.1-0.7-0.3-0.9-0.7
	c-0.1-0.3-0.2-0.7-0.2-1.2v-4.9h1v1.6h1.7v0.8H118.3z"/>
<polygon class="st0" points="0,32.9 33.2,0 33.1,16.2 16.3,32.9 "/>
<rect x="26.7" y="27.2" class="st0" width="2.5" height="2.5"/>
<rect x="30.1" y="27.2" class="st0" width="2.5" height="2.5"/>
<rect x="26.7" y="30.4" class="st0" width="2.5" height="2.5"/>
<rect x="30.1" y="30.4" class="st0" width="2.5" height="2.5"/>
<path class="st0" d="M74.3,10.9v-0.1v0v0v-0.1l0-0.1v0v-0.1c0-0.2,0-0.3,0-0.4v0l0-0.1l0-0.1c0-0.2,0-0.3,0.1-0.5v0
	c0-0.2,0.1-0.3,0.1-0.5c0-0.2,0.1-0.3,0.1-0.5c0.2-0.8,0.5-1.6,0.9-2.3h0c0.1-0.2,0.1-0.3,0.2-0.4c0.1-0.1,0.1-0.2,0.2-0.4h0
	c0.4-0.6,0.8-1.2,1.3-1.8l0,0c0.1-0.1,0.2-0.2,0.3-0.3c0.1-0.1,0.2-0.2,0.3-0.3c0.4-0.4,0.9-0.7,1.4-1.1l0.1,0
	c0.1-0.1,0.2-0.1,0.3-0.2l0.1,0l0,0h0l0.1-0.1h0l0.1-0.1c0.2-0.1,0.4-0.2,0.6-0.3l0.1-0.1l0.1,0h0c0.2-0.1,0.4-0.2,0.6-0.3l0,0
	c0.2-0.1,0.4-0.2,0.6-0.2c0.2-0.1,0.4-0.1,0.6-0.2c1-0.3,2.1-0.4,3.2-0.4h0.4v0c1.4,0,2.8,0.4,4.1,0.9c0.2,0.1,0.5,0.2,0.7,0.3
	c1.2,0.6,2.3,1.4,3.3,2.5L94.4,4l0.3,0.3l-0.2,0.3l-0.2,0.2l-1.7,2h0l-0.2,0.2l-0.3,0.3L91.8,7l-0.2-0.2l0,0l-0.3-0.2l-0.2-0.2
	c-0.4-0.3-0.8-0.6-1.1-0.9v0l-0.2-0.1l-0.2-0.1c-0.3-0.2-0.5-0.3-0.7-0.4l-0.1-0.1l-0.1-0.1h0l0,0l-0.1,0v0
	c-0.1-0.1-0.2-0.1-0.3-0.1l-0.1,0l-0.1,0c-0.1-0.1-0.2-0.1-0.3-0.1l-0.1,0c-0.1,0-0.2-0.1-0.3-0.1c-0.1,0-0.2,0-0.3-0.1
	c-0.5-0.1-1-0.2-1.5-0.2h-0.1l0,0h-0.1h-0.1c-0.1,0-0.2,0-0.4,0h0l-0.1,0l-0.1,0v0c-0.1,0-0.3,0-0.4,0.1h0c-0.1,0-0.2,0-0.4,0.1
	c-0.1,0-0.2,0-0.4,0.1c-0.6,0.2-1.2,0.4-1.8,0.7c-0.1,0-0.2,0.1-0.2,0.1c-0.1,0.1-0.2,0.1-0.2,0.1c-0.4,0.3-0.7,0.6-1,0.9l0,0
	c-0.1,0.1-0.1,0.1-0.2,0.2c-0.1,0.1-0.1,0.1-0.2,0.2c-0.3,0.4-0.5,0.7-0.8,1.2v0h0l-0.1,0.1l-0.1,0.1C79.1,8,79,8.2,78.9,8.4
	l-0.1,0.1l0,0.1c-0.1,0.2-0.1,0.4-0.2,0.6l0,0c0,0.1,0,0.2,0,0.2v0c0,0.1,0,0.1-0.1,0.2c-0.1,0.4-0.1,0.8-0.1,1.2v0.2v0
	c0,0.2,0,0.5,0,0.7c0,0.1,0,0.1,0,0.2c0.1,0.3,0.1,0.7,0.2,1l0,0.1l0,0.1c0,0.1,0.1,0.2,0.1,0.2c0,0.1,0.1,0.1,0.1,0.2
	c0,0.1,0.1,0.1,0.1,0.2c0.1,0.4,0.3,0.7,0.5,1l0,0.1l0,0l0,0l0,0.1l0.1,0.1c0.1,0.1,0.1,0.2,0.2,0.3c0.1,0.1,0.1,0.1,0.2,0.2
	c0.1,0.1,0.1,0.1,0.2,0.2v0h0c0.1,0.1,0.2,0.2,0.3,0.3c0.1,0.1,0.2,0.2,0.3,0.3c0.5,0.5,1.1,0.8,1.7,1.2v0h0c0.1,0,0.1,0,0.2,0.1
	c0.1,0,0.1,0.1,0.2,0.1c0.3,0.1,0.7,0.2,1,0.3c0.1,0,0.1,0,0.2,0c0.1,0,0.2,0,0.2,0c0.4,0.1,0.7,0.1,1.1,0.1h0c0.3,0,0.6,0,0.9,0
	l0.1,0v0c0.2,0,0.5-0.1,0.7-0.1c0.1,0,0.2,0,0.2-0.1c0.1,0,0.2,0,0.2-0.1c0.4-0.1,0.8-0.3,1.1-0.5c0.1,0,0.2-0.1,0.2-0.1
	c0.1,0,0.1-0.1,0.2-0.1c0.4-0.2,0.7-0.5,0.9-0.8l0,0c0.1,0,0.1-0.1,0.2-0.2c0,0,0.1-0.1,0.2-0.2c0.3-0.3,0.5-0.6,0.7-1l0-0.1l0,0h0
	l0.1-0.1c0-0.1,0.1-0.1,0.1-0.2c0.1-0.3,0.3-0.7,0.4-1c0.1-0.2,0.1-0.4,0.1-0.5l0-0.1h-6.3h-0.3h-0.4v-0.4v-0.3V9.8V9.5V9.1h0.4h0.3
	h9.9H96h0.4v0.4v0.3v1.6v0.4v0v0.4h0c0,0.3,0,0.7-0.1,1c0,0.2-0.1,0.4-0.1,0.5c0,0.2-0.1,0.3-0.1,0.5c-0.1,0.6-0.3,1.1-0.6,1.6
	l0,0.1v0l0,0.1c-0.1,0.1-0.2,0.3-0.2,0.4c-0.1,0.1-0.2,0.3-0.3,0.4c-0.1,0.1-0.2,0.3-0.3,0.4c-0.5,0.7-1.1,1.3-1.7,1.9l0,0l-0.1,0.1
	h0l-0.1,0.1l-0.4,0.3v0c-0.2,0.1-0.4,0.3-0.5,0.4h0l-0.1,0.1l-0.1,0.1c-0.2,0.2-0.5,0.3-0.7,0.4h0c0,0-0.1,0.1-0.2,0.1
	c-0.2,0.1-0.5,0.2-0.7,0.3c-0.2,0.1-0.4,0.2-0.7,0.3c-1.2,0.4-2.4,0.6-3.7,0.6h0l-0.1,0v0l0,0h-0.1l-0.2,0h0l-0.2,0
	c-0.3,0-0.6,0-0.8-0.1h0L84,22l-0.2,0c-0.3,0-0.6-0.1-0.9-0.2h0c-0.3-0.1-0.5-0.2-0.8-0.2c-0.3-0.1-0.5-0.2-0.8-0.3
	c-1.3-0.5-2.6-1.3-3.7-2.4h0v0l-0.3-0.3l0,0c-0.1,0-0.1-0.1-0.2-0.1v0l-0.1-0.1l-0.1-0.1c-0.1-0.1-0.2-0.2-0.3-0.3
	c-0.1-0.1-0.2-0.2-0.3-0.3c-0.1-0.1-0.2-0.2-0.2-0.3c-0.4-0.6-0.8-1.3-1.1-1.9L75.1,15h0c0-0.1-0.1-0.2-0.1-0.3
	c-0.2-0.5-0.3-1.1-0.5-1.6v0l0-0.1c0-0.1,0-0.2-0.1-0.3c0-0.1,0-0.2,0-0.3C74.3,11.9,74.3,11.4,74.3,10.9L74.3,10.9z"/>
<path class="st0" d="M54.4,21.4V3.6c0-0.5,0.1-0.9,0.2-1.3L54.7,2h0l0,0c0.1-0.3,0.2-0.5,0.4-0.8c0.1-0.1,0.2-0.2,0.2-0.3
	c0.1-0.1,0.2-0.2,0.3-0.2c0.5-0.4,1.1-0.6,1.8-0.6h0h0.4v0c0.1,0,0.2,0,0.2,0c0.1,0,0.1,0,0.2,0c0.1,0,0.2,0.1,0.2,0.1
	c0.2,0.1,0.5,0.2,0.7,0.3c0,0,0.1,0.1,0.1,0.1h0c0,0,0.1,0.1,0.1,0.1v0l0,0c0.1,0,0.1,0.1,0.2,0.1c0.1,0.1,0.1,0.1,0.1,0.1
	c0.2,0.2,0.4,0.5,0.6,0.8h0l0.1,0.2l6.1,12.5V0.8h0V0.5V0.1H67h0.3H70h0.3h0.4v0.4v0.3v18.8c0,0.8-0.2,1.5-0.7,1.9
	c-0.5,0.4-1.1,0.6-2,0.6h0c-0.3,0-0.7,0-1-0.1c-0.1,0-0.1,0-0.2-0.1c-0.3-0.1-0.5-0.2-0.7-0.3l-0.3-0.2v0c-0.2-0.1-0.3-0.3-0.5-0.4
	h0c0,0-0.1-0.1-0.1-0.1h0c0,0,0-0.1-0.1-0.1c-0.1-0.2-0.2-0.4-0.3-0.6L58.6,7.6v13.8v0.3v0.4h-0.4h-0.3h-2.7h-0.3h-0.4v-0.4V21.4z"
	/>
<path class="st0" d="M37.2,21.4V8c0-0.4,0-0.7,0.1-1l0-0.2c0-0.3,0.1-0.6,0.2-0.8l0.1-0.3h0c0-0.1,0-0.2,0.1-0.2
	c0.2-0.5,0.4-1,0.6-1.4l0.1-0.1l0.1-0.1v0c0.1-0.2,0.3-0.5,0.5-0.7h0L39,2.9l0,0l0.1-0.1c0.2-0.2,0.4-0.4,0.5-0.6v0v0l0,0
	c0.2-0.2,0.4-0.4,0.6-0.5c0.2-0.2,0.4-0.3,0.6-0.5c1.1-0.7,2.4-1,3.9-1h0c0.6,0,1.2,0.1,1.7,0.2c0.1,0,0.2,0,0.3,0.1
	c0.4,0.1,0.9,0.2,1.3,0.4v0c0.2,0.1,0.3,0.1,0.4,0.2c0.1,0.1,0.2,0.1,0.4,0.2c0.6,0.4,1.2,0.9,1.7,1.5h0l0.1,0.1v0h0L50.8,3h0l0,0
	c0.2,0.3,0.4,0.6,0.6,0.9l0,0c0,0.1,0.1,0.1,0.1,0.2c0.1,0.1,0.1,0.1,0.1,0.2v0c0.1,0.3,0.3,0.7,0.4,1v0c0,0.1,0.1,0.3,0.1,0.4
	c0,0.2,0.1,0.3,0.1,0.4c0.2,0.8,0.3,1.6,0.3,2.4h0v12.8h0v0.3v0.4H52h-0.3H49h-0.3h-0.4v-0.4v-0.3v-8.5h-5.9V9h5.9V8.9v0V8.6
	c0-0.3,0-0.7-0.1-1c0-0.1,0-0.2,0-0.3c-0.1-0.4-0.2-0.9-0.3-1.2l0-0.1l0-0.1c-0.1-0.2-0.2-0.3-0.2-0.4c0-0.1-0.1-0.1-0.1-0.2
	c0,0-0.1-0.1-0.1-0.2c-0.2-0.2-0.4-0.4-0.6-0.6l0,0l-0.1-0.1l0,0c0,0-0.1,0-0.1-0.1h0l0,0l0,0c0,0-0.1-0.1-0.1-0.1h0
	c-0.1,0-0.1,0-0.2-0.1c-0.1,0-0.1,0-0.2-0.1C45.7,4.1,45.4,4.1,45,4h-0.2h0h-0.2c-0.2,0-0.3,0-0.4,0c-0.1,0-0.1,0-0.2,0
	c-0.3,0.1-0.6,0.2-0.8,0.3l-0.1,0l-0.1,0c-0.2,0.1-0.3,0.2-0.4,0.3v0c-0.1,0.1-0.1,0.1-0.2,0.1c-0.1,0.1-0.1,0.1-0.1,0.2
	c-0.2,0.3-0.4,0.7-0.6,1.1l0,0c0,0.1-0.1,0.2-0.1,0.3c0,0.1,0,0.1-0.1,0.2c-0.1,0.4-0.2,0.9-0.2,1.3v1h0v4h0v8.5v0.3v0.4H41h-0.3
	h-2.8h-0.3h-0.4v-0.4V21.4z"/>
<path class="st0" d="M104.7,21.4V8c0-0.4,0-0.7,0.1-1l0-0.2c0-0.3,0.1-0.6,0.2-0.8l0.1-0.3c0-0.1,0-0.2,0.1-0.2
	c0.2-0.5,0.4-1,0.6-1.4l0.1-0.1l0.1-0.1v0c0.2-0.2,0.3-0.5,0.5-0.7l0.1-0.1l0,0l0.1-0.1h0c0.2-0.2,0.3-0.4,0.5-0.6v0l0,0v0
	c0.2-0.2,0.4-0.4,0.6-0.5c0.2-0.2,0.4-0.3,0.6-0.4c1.1-0.7,2.4-1,3.9-1c0.6,0,1.2,0.1,1.7,0.2c0.1,0,0.2,0,0.3,0.1
	c0.4,0.1,0.9,0.2,1.3,0.4v0h0c0.2,0.1,0.3,0.1,0.4,0.2c0.1,0.1,0.3,0.1,0.4,0.2c0.7,0.4,1.2,0.9,1.7,1.5l0,0.1l0,0h0l0.2,0.2l0,0
	c0.2,0.3,0.4,0.6,0.6,0.9l0,0c0,0.1,0.1,0.1,0.1,0.2c0,0.1,0.1,0.1,0.1,0.2v0c0.2,0.3,0.3,0.7,0.4,1l0,0c0,0.1,0.1,0.3,0.1,0.4
	c0,0.2,0.1,0.3,0.1,0.4c0.2,0.8,0.2,1.6,0.2,2.4v12.8v0.3v0.4h-0.4h-0.3h-2.7h-0.3h-0.4v-0.4v-0.3v-8.5h-5.9V9h5.9V8.9v0V8.6
	c0-0.3,0-0.7-0.1-1c0-0.1,0-0.2,0-0.3c-0.1-0.5-0.2-0.9-0.3-1.2l0-0.1l-0.1-0.1c-0.1-0.2-0.2-0.3-0.2-0.4h0c0-0.1-0.1-0.1-0.1-0.2
	c0,0-0.1-0.1-0.1-0.2c-0.2-0.2-0.4-0.4-0.6-0.6h0l0,0h0l-0.1-0.1l0,0c0,0-0.1,0-0.1-0.1h0l0,0h0l0,0c0,0-0.1-0.1-0.1-0.1h0
	c-0.1,0-0.1,0-0.2-0.1c-0.1,0-0.1,0-0.2,0c-0.3-0.1-0.6-0.1-0.9-0.1h-0.2h-0.2c-0.1,0-0.3,0-0.4,0c-0.1,0-0.1,0-0.2,0
	c-0.3,0.1-0.6,0.2-0.8,0.3h0l-0.1,0l-0.1,0c-0.2,0.1-0.3,0.2-0.4,0.3v0c-0.1,0.1-0.1,0.1-0.1,0.1c-0.1,0.1-0.1,0.1-0.1,0.2
	c-0.2,0.3-0.4,0.7-0.6,1.1v0c0,0.1-0.1,0.2-0.1,0.3h0c0,0.1,0,0.1-0.1,0.2c-0.1,0.4-0.2,0.9-0.2,1.3v1h0v4h0v8.5v0.3v0.4h-0.4h-0.3
	h-2.8h-0.3h-0.4v-0.4V21.4z"/>
<rect x="98.5" y="0.1" class="st0" width="4.2" height="22"/>
</svg>
