<?xml version="1.0" encoding="utf-8"?>
<!-- Generator: Adobe Illustrator 21.1.0, SVG Export Plug-In . SVG Version: 6.00 Build 0)  -->
<svg version="1.1" id="Layer_1" xmlns="http://www.w3.org/2000/svg" xmlns:xlink="http://www.w3.org/1999/xlink" x="0px" y="0px"
	 width="62px" height="62px" viewBox="0 0 62 62" style="enable-background:new 0 0 62 62;" xml:space="preserve">
<style type="text/css">
	.st0{opacity:0.7;}
	.st1{fill-rule:evenodd;clip-rule:evenodd;fill:#FFFFFF;}
</style>
<g class="st0">
	<polygon class="st1" points="26.1,9.7 29,9.7 29,4.4 32.7,9.7 35.6,9.7 35.6,0 32.7,0 32.7,5.3 28.9,0 26.1,0 	"/>
	<path class="st1" d="M17.7,24.9c7.3-7.1,19.2-7.1,26.5,0c7.3,7.1,7.3,18.6,0,25.7c-7.3,7.1-19.2,7.1-26.5,0
		C10.4,43.5,10.4,32,17.7,24.9 M13.3,20.6C8.4,25.3,6,31.5,6,37.7c0,6.2,2.4,12.4,7.3,17.2C18.2,59.6,24.6,62,31,62h0
		c6.4,0,12.8-2.4,17.7-7.1c4.9-4.7,7.3-10.9,7.3-17.2v0c0-6.2-2.4-12.4-7.3-17.2C38.9,11.1,23.1,11.1,13.3,20.6z"/>
	<path class="st1" d="M31,33.2c1.8,0,3.2,1,4,2.4l-4-15l-3.9,14.8C27.9,34.1,29.3,33.2,31,33.2z"/>
	<path class="st1" d="M31,42.3c-1.7,0-3.1-0.9-4-2.2l4,14.9l4.1-15C34.3,41.3,32.8,42.3,31,42.3z"/>
</g>
</svg>
