<?xml version="1.0" encoding="utf-8"?>
<!-- Generator: Adobe Illustrator 21.1.0, SVG Export Plug-In . SVG Version: 6.00 Build 0)  -->
<svg version="1.1" id="Layer_1" xmlns="http://www.w3.org/2000/svg" xmlns:xlink="http://www.w3.org/1999/xlink" x="0px" y="0px"
	 width="58px" height="34px" viewBox="0 0 58 34" style="enable-background:new 0 0 58 34;" xml:space="preserve">
<style type="text/css">
	.st0{fill-rule:evenodd;clip-rule:evenodd;fill:#B6A57C;}
</style>
<path class="st0" d="M11.5,30.7l0.3,1.1h-0.2l0,0c-0.1-0.2-0.2-0.3-0.2-0.3c-0.1-0.1-0.2-0.2-0.3-0.3c-0.2-0.2-0.5-0.3-0.9-0.3
	c-0.4,0-0.7,0.2-1,0.5c-0.1,0.1-0.2,0.3-0.2,0.5C9,31.9,9,32.1,9,32.3c0,0.2,0,0.4,0.1,0.5c0,0.2,0.1,0.3,0.2,0.5
	c0.1,0.1,0.3,0.2,0.5,0.3c0.2,0.1,0.4,0.1,0.6,0.1c0.3,0,0.5-0.1,0.8-0.2c0.2-0.1,0.4-0.3,0.6-0.5l0.2,0.1c-0.2,0.3-0.4,0.5-0.7,0.6
	c-0.3,0.1-0.6,0.2-1,0.2c-0.6,0-1-0.2-1.4-0.5c-0.4-0.3-0.5-0.7-0.5-1.2c0-0.5,0.2-0.9,0.5-1.2c0.4-0.3,0.8-0.5,1.3-0.5
	c0.2,0,0.4,0,0.6,0.1c0.2,0.1,0.3,0.1,0.5,0.3l0.1-0.2H11.5z M14.8,32.3l0.9,1.1c0.2,0.2,0.4,0.3,0.6,0.4v0.1h-0.9l-1.2-1.5h-0.8
	v0.8v0.1c0,0.2,0,0.3,0.1,0.3c0.1,0.1,0.2,0.1,0.4,0.1h0.1v0.1h-1.6v-0.1l0.1,0c0.1,0,0.2,0,0.3,0c0.1,0,0.1-0.1,0.1-0.1
	c0,0,0-0.1,0.1-0.1c0-0.1,0-0.1,0-0.2v-2c0-0.2,0-0.3-0.1-0.4c-0.1-0.1-0.2-0.1-0.3-0.1h-0.1v-0.2h2.2c0.4,0,0.7,0.1,0.9,0.2
	c0.3,0.1,0.4,0.4,0.4,0.7c0,0.2-0.1,0.4-0.3,0.6C15.3,32.3,15,32.3,14.8,32.3 M13.4,32.2h0.8c0.2,0,0.3,0,0.4,0
	c0.1,0,0.2-0.1,0.3-0.1c0.2-0.1,0.3-0.3,0.3-0.6c0-0.2-0.1-0.4-0.3-0.5c-0.2-0.1-0.4-0.1-0.7-0.1c-0.1,0-0.2,0-0.4,0
	c-0.1,0-0.2,0-0.3,0.1c-0.1,0-0.1,0.1-0.1,0.1c0,0,0,0.1,0,0.2V32.2z M19.4,30.7l0.4,0.9l-0.2,0.1c-0.2-0.3-0.5-0.4-0.7-0.5
	c-0.2-0.1-0.5-0.2-0.9-0.2c-0.1,0-0.2,0-0.3,0c-0.1,0-0.2,0-0.2,0.1c-0.1,0-0.1,0.1-0.1,0.1c0,0,0,0.1,0,0.2V32h0.4
	c0.3,0,0.5,0,0.5-0.1c0.1-0.1,0.1-0.2,0.2-0.5h0.2v1.4h-0.2c0-0.2,0-0.3-0.1-0.4c-0.1-0.1-0.1-0.1-0.2-0.2c-0.1,0-0.2,0-0.4,0h-0.3
	v0.9c0,0.1,0,0.1,0,0.2c0,0.1,0,0.1,0.1,0.1c0,0.1,0.1,0.1,0.2,0.1c0.1,0,0.2,0,0.3,0c0.4,0,0.8-0.1,1-0.2c0.3-0.1,0.5-0.4,0.8-0.7
	l0.2,0.1l-0.5,1h-3.2v-0.1l0.1,0c0.1,0,0.2,0,0.2,0c0.1,0,0.1-0.1,0.1-0.1c0,0,0-0.1,0.1-0.1c0-0.1,0-0.1,0-0.2v-2
	c0-0.2,0-0.3-0.1-0.3c-0.1-0.1-0.2-0.1-0.4-0.1h-0.1v-0.2H19.4z M23.3,30.7l0.4,0.9l-0.2,0.1c-0.2-0.3-0.5-0.4-0.7-0.5
	c-0.2-0.1-0.5-0.2-0.9-0.2c-0.1,0-0.2,0-0.3,0c-0.1,0-0.2,0-0.2,0.1c0,0-0.1,0.1-0.1,0.1c0,0,0,0.1,0,0.2V32h0.4
	c0.3,0,0.5,0,0.5-0.1c0.1-0.1,0.1-0.2,0.2-0.5h0.2v1.4h-0.2c0-0.2,0-0.3-0.1-0.4c-0.1-0.1-0.1-0.1-0.2-0.2c-0.1,0-0.2,0-0.4,0h-0.3
	v0.9c0,0.1,0,0.1,0,0.2c0,0.1,0,0.1,0.1,0.1c0,0.1,0.1,0.1,0.2,0.1c0.1,0,0.2,0,0.3,0c0.4,0,0.8-0.1,1-0.2c0.3-0.1,0.5-0.4,0.8-0.7
	l0.2,0.1l-0.5,1h-3.2v-0.1l0.1,0c0.1,0,0.2,0,0.2,0c0.1,0,0.1-0.1,0.1-0.1c0,0,0-0.1,0.1-0.1c0-0.1,0-0.1,0-0.2v-2
	c0-0.2,0-0.3-0.1-0.3c-0.1-0.1-0.2-0.1-0.4-0.1h-0.1v-0.2H23.3z M24.1,33.9v-0.1l0,0c0.1,0,0.2,0,0.2,0c0.1,0,0.1-0.1,0.2-0.1
	c0,0,0-0.1,0-0.1c0-0.1,0-0.1,0-0.2v-2c0-0.1,0-0.3-0.1-0.3c-0.1-0.1-0.2-0.1-0.3-0.1h-0.1v-0.2h1.6c0.4,0,0.8,0,1,0.1
	c0.2,0.1,0.4,0.1,0.6,0.2c0.2,0.1,0.4,0.3,0.5,0.6c0.1,0.2,0.2,0.5,0.2,0.8c0,0.3-0.1,0.5-0.2,0.7c-0.1,0.2-0.3,0.4-0.5,0.6
	c-0.2,0.1-0.4,0.2-0.6,0.2c-0.2,0.1-0.6,0.1-1,0.1H24.1z M25.2,31.4v1.9c0,0.1,0,0.1,0,0.2c0,0.1,0,0.1,0.1,0.2c0,0,0.1,0.1,0.2,0.1
	c0.1,0,0.2,0,0.4,0c0.5,0,0.9-0.1,1.2-0.4c0.3-0.3,0.4-0.6,0.4-1.1c0-0.2,0-0.4-0.1-0.6c-0.1-0.2-0.2-0.4-0.3-0.5
	c-0.1-0.1-0.3-0.2-0.5-0.3c-0.2-0.1-0.4-0.1-0.6-0.1c-0.1,0-0.2,0-0.4,0c-0.1,0-0.2,0.1-0.2,0.1c0,0-0.1,0.1-0.1,0.2
	C25.2,31.2,25.2,31.3,25.2,31.4 M33.5,30.7l0.3,1l-0.2,0c-0.2-0.3-0.4-0.5-0.6-0.6c-0.3-0.2-0.6-0.3-0.8-0.3c-0.4,0-0.7,0.2-0.9,0.5
	c-0.2,0.3-0.3,0.6-0.3,1c0,0.2,0,0.4,0.1,0.5c0,0.2,0.1,0.3,0.2,0.5c0.1,0.2,0.3,0.3,0.4,0.4c0.2,0.1,0.4,0.1,0.6,0.1
	c0.3,0,0.5-0.1,0.7-0.2c0.2-0.1,0.3-0.3,0.3-0.6c0-0.2,0-0.3-0.1-0.3c-0.1-0.1-0.2-0.1-0.4-0.1v-0.1h1.5v0.1h0c-0.1,0-0.1,0-0.2,0
	c-0.1,0-0.1,0.1-0.2,0.1c0,0,0,0.1,0,0.2c0,0.1,0,0.1,0,0.2v0.1v0.8h-0.3l-0.2-0.3c-0.4,0.3-0.8,0.4-1.2,0.4c-0.6,0-1-0.2-1.4-0.5
	c-0.4-0.3-0.5-0.7-0.5-1.2c0-0.2,0-0.4,0.1-0.6c0.1-0.2,0.2-0.4,0.4-0.5c0.2-0.2,0.4-0.3,0.6-0.4c0.2-0.1,0.5-0.2,0.7-0.2
	c0.4,0,0.8,0.1,1.1,0.3l0.1-0.2H33.5z M37.1,32.3l0.9,1.1c0.2,0.2,0.4,0.3,0.6,0.4v0.1h-0.9l-1.2-1.5h-0.8v0.8v0.1
	c0,0.2,0,0.3,0.1,0.3c0.1,0.1,0.2,0.1,0.4,0.1h0.1v0.1h-1.6v-0.1l0.1,0c0.1,0,0.2,0,0.3,0c0.1,0,0.1-0.1,0.1-0.1c0,0,0-0.1,0-0.1
	c0-0.1,0-0.1,0-0.2v-2c0-0.2,0-0.3-0.1-0.4c-0.1-0.1-0.2-0.1-0.3-0.1h-0.1v-0.2h2.2c0.4,0,0.7,0.1,0.9,0.2c0.3,0.1,0.4,0.4,0.4,0.7
	c0,0.2-0.1,0.4-0.3,0.6C37.6,32.3,37.4,32.3,37.1,32.3 M35.7,32.2h0.8c0.1,0,0.3,0,0.4,0c0.1,0,0.2-0.1,0.3-0.1
	c0.2-0.1,0.3-0.3,0.3-0.6c0-0.2-0.1-0.4-0.3-0.5c-0.2-0.1-0.4-0.1-0.7-0.1c-0.1,0-0.2,0-0.4,0c-0.1,0-0.2,0-0.3,0.1
	c-0.1,0-0.1,0.1-0.1,0.1c0,0,0,0.1,0,0.2V32.2z M40.4,30.6c-0.5,0-0.9,0.2-1.3,0.5c-0.3,0.3-0.5,0.7-0.5,1.2c0,0.5,0.2,0.9,0.5,1.2
	c0.3,0.3,0.8,0.5,1.3,0.5c0.5,0,0.9-0.2,1.3-0.5c0.3-0.3,0.5-0.7,0.5-1.2c0-0.5-0.2-0.9-0.5-1.2C41.4,30.7,40.9,30.6,40.4,30.6
	 M40.4,30.8L40.4,30.8c0.4,0,0.7,0.1,0.9,0.4c0.2,0.3,0.3,0.6,0.3,1.1c0,0.4-0.1,0.7-0.3,1c-0.2,0.3-0.5,0.4-0.9,0.4
	c-0.4,0-0.7-0.2-0.9-0.5c-0.2-0.3-0.3-0.6-0.3-1c0-0.5,0.1-0.8,0.3-1.1C39.7,31,40,30.8,40.4,30.8 M44.9,30.7h1.2v0.1h0
	c-0.1,0-0.2,0-0.2,0c-0.1,0-0.1,0.1-0.1,0.1c0,0.1,0,0.1,0,0.2c0,0.1,0,0.2,0,0.3v1.5c0,0.2,0,0.4,0,0.5c0,0.1-0.1,0.3-0.3,0.4
	c-0.1,0.1-0.3,0.2-0.5,0.2c-0.2,0-0.3,0-0.5,0c-0.2,0-0.4,0-0.5,0c-0.2,0-0.3-0.1-0.5-0.2c-0.2-0.1-0.3-0.2-0.4-0.4
	c0-0.1-0.1-0.3-0.1-0.5v-1.6c0-0.2,0-0.3-0.1-0.4c-0.1-0.1-0.2-0.2-0.3-0.2h-0.1v-0.1H44v0.1l-0.1,0c-0.1,0-0.2,0-0.2,0
	c-0.1,0-0.1,0.1-0.1,0.1c0,0,0,0.1,0,0.1c0,0.1,0,0.1,0,0.2v0.1v1.2v0.3c0,0.1,0,0.2,0,0.3c0,0.1,0.1,0.2,0.1,0.2
	c0.1,0.1,0.2,0.2,0.4,0.3c0.1,0,0.3,0.1,0.5,0.1c0.2,0,0.3,0,0.5-0.1c0.2-0.1,0.3-0.1,0.4-0.3c0-0.1,0.1-0.2,0.1-0.3
	c0-0.1,0-0.3,0-0.4v-1.3c0-0.2,0-0.3-0.1-0.4c-0.1-0.1-0.2-0.1-0.4-0.1h-0.1V30.7z M47.5,32.5v0.7v0.1c0,0.1,0,0.2,0.1,0.3
	c0,0.1,0.1,0.1,0.2,0.1c0.1,0,0.2,0,0.3,0h0.1v0.2h-1.6v-0.1l0,0c0.1,0,0.2,0,0.2,0c0.1,0,0.1-0.1,0.1-0.1c0-0.1,0-0.1,0.1-0.2
	c0-0.1,0-0.2,0-0.2v-1.9c0-0.2,0-0.3-0.1-0.3c-0.1-0.1-0.2-0.1-0.3-0.1h-0.1v-0.2h1.8c0.2,0,0.4,0,0.5,0c0.1,0,0.3,0.1,0.4,0.1
	c0.3,0.2,0.5,0.4,0.5,0.7c0,0.1,0,0.3-0.1,0.4c-0.1,0.1-0.2,0.2-0.3,0.3c-0.1,0.1-0.3,0.1-0.5,0.2c-0.1,0-0.3,0-0.5,0H47.5z
	 M47.5,32.3h0.7c0.2,0,0.3,0,0.4,0c0.1,0,0.2-0.1,0.3-0.2C49,32,49,32,49.1,31.9c0-0.1,0-0.2,0-0.3c0-0.1,0-0.2-0.1-0.3
	c0-0.1-0.1-0.2-0.2-0.2c-0.1-0.1-0.2-0.1-0.3-0.1c-0.1,0-0.2,0-0.4,0c-0.1,0-0.2,0-0.4,0c-0.1,0-0.2,0-0.3,0.1c0,0,0,0-0.1,0.1
	c0,0,0,0.1,0,0.1v0.1V32.3z"/>
<path class="st0" d="M19,0.3c0.8,0.2,1.2,0.9,1,1.5c-0.2,0.7-1,1.1-1.8,0.9c-1.9-0.5-3.3,0-4.1,1c0.4,0,0.9,0.1,1.3,0.2
	c0.2,0.1,0.5,0.1,0.7,0.2c1.9,0.6,3.5,1.6,4.4,2.8c1,1.2,1.4,2.7,0.9,4.2c-0.4,1.1-1,2-1.9,2.6c-0.9,0.6-2,0.7-3.4,0.4
	c-3.6-0.8-5.5-3.6-5.9-6.4c-0.1-0.4-0.1-0.8-0.1-1.2C9.5,6.8,8.7,7.1,8,7.5c-2.1,1.2-3.7,3.1-4.5,5.2c-0.1,0.2-0.2,0.4-0.2,0.6v0
	C2.5,15.6,2.8,18,4,20c1.1,1.8,3,3.3,5.8,4c1.7,0.5,3.4,0.3,4.8-0.3c1.1-0.4,2.1-1.1,2.8-1.9c0.8-0.8,1.3-1.7,1.6-2.6
	c0.3-1,0.4-1.9,0-2.6c-0.3-0.6,0-1.4,0.7-1.7c0.7-0.3,1.6,0,1.9,0.6c0.2,0.4,0.3,0.8,0.4,1.3c0.8-0.8,1.8-1.4,3.3-2
	c0.2-0.1,0.3-0.1,0.5-0.1c0,0,0-0.1,0-0.1c0.2-2.5,2.3-4.8,4.5-5.9c0.8-0.4,1.6-0.7,2.4-0.8c0.9-0.2,1.8-0.1,2.5,0.2
	c1,0.4,1.8,1.3,1.9,2.7c0,0.2,0,0.4,0,0.6v0c0,0.9-0.5,1.9-1.3,2.7v0c-0.8,0.8-2,1.3-3.6,1.5c-0.4,0-0.8,0.1-1.3,0
	c-0.8,0-1.4-0.6-1.4-1.3c0-0.7,0.7-1.2,1.5-1.2c0.3,0,0.6,0,0.9,0c0.9-0.1,1.5-0.4,1.8-0.7l0,0c0.3-0.3,0.5-0.7,0.5-1.1
	c0-0.1,0-0.2,0-0.2c-0.1-0.4-0.2-0.6-0.4-0.7c-0.2-0.1-0.4-0.1-0.7,0c-0.4,0.1-0.9,0.2-1.4,0.5c-1.5,0.8-3,2.4-3.1,4
	c-0.1,1,0.2,2,0.7,2.7c0.3,0.4,0.7,0.8,1.1,1c0.4,0.2,0.8,0.2,1.2,0.1c0.6-0.1,1.2-0.5,1.8-1.1c0.3-0.3,0.8-0.5,1.2-0.4
	c0.8-1.7,2.4-3.2,4-4.1c0.8-0.4,1.6-0.7,2.4-0.8c0.9-0.1,1.8-0.1,2.5,0.2c1,0.4,1.8,1.3,1.9,2.7c0,0.2,0,0.4,0,0.6v0
	c0,0.9-0.5,1.9-1.3,2.7v0c-0.8,0.8-2,1.3-3.6,1.5c-0.4,0-0.8,0.1-1.3,0c-0.8,0-1.4-0.6-1.4-1.3c0-0.7,0.7-1.2,1.5-1.2
	c0.3,0,0.6,0,0.9,0c0.9-0.1,1.5-0.4,1.8-0.7v0c0.4-0.3,0.5-0.7,0.5-1.1c0-0.1,0-0.1,0-0.2c0-0.4-0.2-0.6-0.4-0.7
	c-0.2-0.1-0.4-0.1-0.7,0h0c-0.4,0.1-0.9,0.3-1.4,0.5c-1.5,0.8-3,2.4-3.2,4c-0.1,1,0.2,2,0.7,2.7c0.3,0.4,0.7,0.8,1.1,1
	c0.4,0.2,0.8,0.2,1.2,0.1c0.6-0.1,1.2-0.5,1.8-1.1c0.5-0.5,1.4-0.6,2-0.1c0.6,0.5,0.7,1.2,0.2,1.8c-1.1,1.1-2.2,1.7-3.3,1.9
	c-1.1,0.2-2.2,0.1-3.2-0.4c-0.9-0.4-1.7-1.1-2.2-1.8c-0.6-0.8-1-1.8-1.1-2.8c-0.6,0.4-1.3,0.6-1.9,0.8c-1.1,0.2-2.2,0.1-3.2-0.4
	c-0.9-0.4-1.7-1-2.2-1.8c-0.4-0.5-0.6-1-0.8-1.6C23,18.6,22.6,21.2,22,25c-0.1,0.6-0.2,1.1-0.2,1.5c-0.1,0.7-0.8,1.2-1.6,1.1
	c-0.8-0.1-1.3-0.7-1.2-1.4c0.1-0.7,0.2-1.1,0.2-1.4c0.1-0.4,0.1-0.7,0.2-1c-1,0.9-2.2,1.7-3.6,2.3c-2,0.8-4.3,1-6.8,0.4
	c-3.5-0.9-6-2.8-7.4-5.2c-1.6-2.5-1.9-5.6-1.1-8.5l0,0c0.1-0.3,0.2-0.5,0.3-0.8c1-2.5,3-4.9,5.6-6.4c1.4-0.8,2.9-1.4,4.5-1.7
	c0.2-0.6,0.6-1.1,1-1.6C13.3,0.4,15.7-0.5,19,0.3 M52.2,19.5c-0.2,0-0.4,0-0.5-0.1c-0.3,0-0.5,0-0.8,0c-0.3,0-0.7,0.1-1,0.3
	c-0.8,0.4-1.5,1.1-1.9,2c-0.5,0.9-0.7,1.9-0.6,2.8c0,0.4,0.2,0.8,0.4,1.1c0.3,0.6,0.8,1,1.4,1.3c0.3,0.1,0.5,0.2,0.8,0.2
	c0.2,0,0.4,0,0.6-0.1c0.3-0.1,0.6-0.4,0.9-0.9c0.1-0.2,0.3-0.4,0.5-0.5c-0.2-1.4-0.1-2.9,0-4.5C52,20.5,52.1,20,52.2,19.5
	 M52.8,28.6c0.2,0.4,0.3,0.7,0.6,1c0.4,0.6,1.3,0.8,1.9,0.4c0.7-0.4,0.9-1.1,0.5-1.7c-1-1.5-1.3-4.1-0.9-7c0.4-3.6,1.6-7.8,3.1-11.3
	c0.3-0.6-0.1-1.4-0.8-1.6c-0.7-0.2-1.6,0.1-1.8,0.7c-1,2.5-2,5.2-2.6,7.9c-0.3,0-0.5-0.1-0.8-0.1c-0.4,0-0.8,0-1.2,0
	c-0.7,0.1-1.4,0.2-2,0.5c-1.4,0.7-2.5,1.8-3.2,3.2c-0.7,1.3-1,2.8-0.8,4.1c0.1,0.7,0.3,1.4,0.7,2c0.6,1,1.6,1.9,2.6,2.3
	c0.6,0.3,1.3,0.4,1.9,0.5c0.7,0,1.4-0.1,2.1-0.4C52.2,29,52.5,28.9,52.8,28.6 M13.1,6.1c0,0.4,0,0.8,0,1.3c0.2,1.9,1.5,3.7,3.8,4.3
	c0.5,0.1,0.8,0.1,1.1-0.1c0.3-0.2,0.6-0.6,0.8-1.2c0.2-0.7,0-1.4-0.5-2c-0.6-0.8-1.7-1.5-3.1-1.9c-0.2,0-0.3-0.1-0.5-0.1h0
	C14.2,6.2,13.7,6.1,13.1,6.1"/>
</svg>
