<?xml version="1.0" encoding="utf-8"?>
<!-- Generator: Adobe Illustrator 21.1.0, SVG Export Plug-In . SVG Version: 6.00 Build 0)  -->
<svg version="1.1" id="Layer_1" xmlns="http://www.w3.org/2000/svg" xmlns:xlink="http://www.w3.org/1999/xlink" x="0px" y="0px"
	 width="368px" height="192px" viewBox="0 0 368 192" style="enable-background:new 0 0 368 192;" xml:space="preserve">
<style type="text/css">
	.st0{fill:#A8AAAD;}
	.st1{fill:#6E6F72;}
	.st2{fill:#B5A37A;}
</style>
<g>
	<g>
		<path class="st0" d="M186,183.3v8.2h-2.8v-24.7h7.9c5.3,0,8,2.3,8,8c0,6-2.9,8.6-8,8.6H186z M191,180.8c3.4,0,5.2-1.6,5.2-6.2
			c0-4.2-1.8-5.5-5.2-5.5h-5v11.7H191z"/>
		<path class="st0" d="M208.6,166.7h5.5l6.4,24.7h-2.8l-1.7-6.3h-9.4l-1.7,6.3h-2.8L208.6,166.7z M207.2,182.7h8.3l-3.6-13.6h-1.1
			L207.2,182.7z"/>
		<path class="st0" d="M226.3,166.7h4.9l9,21.9h0.7v-21.9h2.7v24.7h-4.8l-9.1-22h-0.6v22h-2.8V166.7z"/>
		<path class="st0" d="M282.4,182h-6.2v9.5h-2.8v-24.7h8.3c4.9,0,7.5,2.3,7.5,7.5c0,4.5-1.8,6.4-4.2,7.2l4.8,10h-3L282.4,182z
			 M281.8,169.1h-5.5v10.5h5.5c3.2,0,4.7-1.8,4.7-5.4C286.4,170.8,285,169.1,281.8,169.1z"/>
		<path class="st0" d="M248.9,178.9c0-5.9,0.8-9.5,3.6-11.3c1.3-0.9,3.2-1.3,5.5-1.3c7.4,0,9.2,3.8,9.2,12.5c0,6.1-0.8,10-3.9,11.8
			c-1.3,0.8-3,1.1-5.3,1.1C250.7,191.8,248.9,187.6,248.9,178.9z M261.3,188.8c2.6-1.3,3-4.4,3-9.9c0-7.2-0.8-10.1-6.3-10.1
			c-1.3,0-2.4,0.1-3.2,0.5c-2.6,1.1-3.1,4.1-3.1,9.6c0,7.2,0.8,10.5,6.3,10.5C259.4,189.4,260.5,189.2,261.3,188.8z"/>
		<path class="st0" d="M320.5,166.7h4.9l6.4,21.2l6.4-21.2h4.9v24.7h-2.6v-22.3h-0.5l-6.4,21.4h-3.4l-6.4-21.4h-0.5v22.3h-2.6V166.7
			z"/>
		<path class="st0" d="M301.8,166.7h5.5l6.4,24.7H311l-1.7-6.3h-9.4l-1.7,6.3h-2.8L301.8,166.7z M300.4,182.7h8.3l-3.6-13.6H304
			L300.4,182.7z"/>
		<path class="st0" d="M356.1,166.7h5.5l6.4,24.7h-2.8l-1.7-6.3h-9.4l-1.7,6.3h-2.8L356.1,166.7z M354.7,182.7h8.3l-3.6-13.6h-1.1
			L354.7,182.7z"/>
	</g>
	<polygon class="st0" points="60.7,192 0,192 0,159.3 130.2,159.3 130.2,162.5 3.2,162.5 3.2,188.8 60.7,188.8 	"/>
	<polygon class="st1" points="149.8,185.6 146.6,185.6 146.6,50.5 72.6,50.5 72.6,171.7 130.6,171.7 130.6,174.9 69.4,174.9 
		69.4,47.3 149.8,47.3 	"/>
	<g>
		<path class="st0" d="M186.1,154.3v9.7h-2.8v-25.3h9.4c5.3,0,8.1,2.3,8.1,7.7c0,3.7-1.5,6.3-4.6,7.4l4.9,10.3h-3.1l-4.6-9.7H186.1z
			 M192.6,141.2h-6.6v10.6h6.6c3.8,0,5.2-2.3,5.2-5.5C197.8,142.9,196.2,141.2,192.6,141.2z"/>
		<path class="st0" d="M205.8,138.7h3.1V164h-3.1V138.7z"/>
		<path class="st0" d="M232.1,138.7l-6.6,25.3h-6.3l-6.6-25.3h2.9l5.8,22.8h2l5.8-22.8H232.1z"/>
		<path class="st0" d="M236.1,138.7h15.4v2.5h-12.6v8.7h10.4v2.5h-10.4v9.1h12.6v2.5h-15.4V138.7z"/>
		<path class="st0" d="M259.2,154.3v9.7h-2.8v-25.3h9.4c5.3,0,8.1,2.3,8.1,7.7c0,3.7-1.5,6.3-4.6,7.4L274,164h-3.1l-4.6-9.7H259.2z
			 M265.7,141.2h-6.6v10.6h6.6c3.8,0,5.2-2.3,5.2-5.5C270.9,142.9,269.3,141.2,265.7,141.2z"/>
	</g>
	<polygon class="st2" points="205.8,0 205.7,0 128.6,0 128.6,187.4 149.8,187.4 149.8,184.2 131.7,184.2 131.7,3.2 205.7,3.2 
		205.7,133.9 208.9,133.9 208.9,0 	"/>
</g>
</svg>
