<?xml version="1.0" encoding="utf-8"?>
<!-- Generator: Adobe Illustrator 21.1.0, SVG Export Plug-In . SVG Version: 6.00 Build 0)  -->
<svg version="1.1" id="Layer_1" xmlns="http://www.w3.org/2000/svg" xmlns:xlink="http://www.w3.org/1999/xlink" x="0px" y="0px"
	 width="180px" height="180px" viewBox="0 0 180 180" style="enable-background:new 0 0 180 180;" xml:space="preserve">
<style type="text/css">
	.st0{fill:#A48741;}
	.st1{fill:#FFFFFF;}
</style>
<circle class="st0" cx="90" cy="89.3" r="88"/>
<g>
	<path class="st1" d="M90.5,111.8v3.1h-1.1v-9.3h2.9c2,0,2.9,0.9,2.9,2.9c0,2.2-1.1,3.3-2.9,3.3H90.5z M92.3,110.9
		c1.3,0,2-0.5,2-2.4c0-1.6-0.7-2-2-2h-1.8v4.4H92.3L92.3,110.9z"/>
	<path class="st1" d="M98.9,105.6h2l2.4,9.3h-1.1l-0.7-2.4H98l-0.7,2.4h-1.1L98.9,105.6z M98.4,111.4h3.1l-1.3-5.1h-0.4L98.4,111.4z
		"/>
	<polygon class="st1" points="105.5,105.6 107.3,105.6 110.8,113.8 111,113.8 111,105.6 111.9,105.6 111.9,114.7 110.2,114.7 
		106.8,106.5 106.6,106.5 106.6,114.7 105.5,114.7 	"/>
	<path class="st1" d="M126.5,111.2h-2.4v3.5H123v-9.3h3.1c1.8,0,2.7,0.9,2.7,2.7c0,1.6-0.7,2.4-1.6,2.7l1.8,3.7h-1L126.5,111.2z
		 M126.3,106.5h-2v3.8h2c1.3,0,1.8-0.7,1.8-2C128,107,127.4,106.5,126.3,106.5"/>
	<path class="st1" d="M113.9,110.1c0-2.2,0.4-3.7,1.3-4.2c0.5-0.4,1.1-0.5,2-0.5c2.7,0,3.5,1.5,3.5,4.8c0,2.2-0.4,3.7-1.5,4.4
		c-0.5,0.4-1.1,0.4-2,0.4C114.6,114.9,113.9,113.2,113.9,110.1 M118.7,113.8c0.9-0.5,1.1-1.6,1.1-3.7c0-2.7-0.4-3.8-2.4-3.8
		c-0.5,0-0.9,0-1.3,0.2c-0.9,0.4-1.1,1.5-1.1,3.7c0,2.7,0.4,3.8,2.4,3.8C117.9,114,118.3,114,118.7,113.8"/>
	<polygon class="st1" points="140.8,105.6 142.6,105.6 145,113.4 147.4,105.6 149.2,105.6 149.2,114.7 148.1,114.7 148.1,106.5 
		147.9,106.5 145.5,114.3 144.3,114.3 141.9,106.5 141.7,106.5 141.7,114.7 140.8,114.7 	"/>
	<path class="st1" d="M133.8,105.6h2l2.4,9.3h-1.1l-0.7-2.4h-3.5l-0.7,2.4h-1.1L133.8,105.6z M133.3,111.4h3.1l-1.3-5.1h-0.4
		L133.3,111.4z"/>
	<path class="st1" d="M153.9,105.6h2l2.4,9.3h-1.1l-0.7-2.4H153l-0.7,2.4h-1.1L153.9,105.6z M153.6,111.4h3.1l-1.3-5.1H155
		L153.6,111.4z"/>
	<polygon class="st1" points="43.7,114.9 21,114.9 21,102.8 69.6,102.8 69.6,103.9 22.1,103.9 22.1,113.8 43.7,113.8 	"/>
	<polygon class="st1" points="77,112.5 75.7,112.5 75.7,62 48.1,62 48.1,107.4 69.8,107.4 69.8,108.5 47,108.5 47,60.9 77,60.9 	"/>
	<path class="st1" d="M90.5,100.8v3.7h-1.1V95h3.5c2,0,3.1,0.9,3.1,2.9c0,1.5-0.5,2.4-1.6,2.7l1.8,3.8h-1.1l-1.6-3.7L90.5,100.8
		L90.5,100.8z M92.9,96h-2.4v4h2.4c1.5,0,2-0.9,2-2C94.9,96.6,94.3,96,92.9,96"/>
	<rect x="97.8" y="95" class="st1" width="1.1" height="9.5"/>
	<polygon class="st1" points="107.7,95 105.3,104.5 102.9,104.5 100.4,95 101.5,95 103.7,103.5 104.4,103.5 106.6,95 	"/>
	<polygon class="st1" points="109.1,95 115,95 115,96 110.2,96 110.2,99.2 114.1,99.2 114.1,100.1 110.2,100.1 110.2,103.5 
		115,103.5 115,104.5 109.1,104.5 	"/>
	<path class="st1" d="M117.7,100.8v3.7h-1.1V95h3.5c2,0,3.1,0.9,3.1,2.9c0,1.5-0.5,2.4-1.8,2.7l1.8,3.8h-1.1l-1.6-3.7L117.7,100.8
		L117.7,100.8z M120.3,96h-2.4v4h2.4c1.5,0,2-0.9,2-2C122.1,96.6,121.6,96,120.3,96"/>
	<polygon class="st1" points="97.8,43.2 97.8,43.2 69.1,43.2 69.1,113.2 77,113.2 77,112 70.2,112 70.2,44.5 97.8,44.5 97.8,93.9 
		99.1,93.9 99.1,43.2 	"/>
</g>
</svg>
